<mxfile host="app.diagrams.net" modified="2021-04-05T09:22:26.695Z" agent="5.0 (Windows NT 10.0; Win64; x64) AppleWebKit/537.36 (KHTML, like Gecko) Chrome/89.0.4389.114 Safari/537.36" etag="LJsqMAbL_J2Rq-tIemaU" version="14.5.7" type="github">
  <diagram id="rPfU8PMQx4QMoOsqu0ZK" name="Page-1">
    <mxGraphModel dx="782" dy="390" grid="1" gridSize="10" guides="1" tooltips="1" connect="1" arrows="1" fold="1" page="1" pageScale="1" pageWidth="827" pageHeight="1169" math="0" shadow="0">
      <root>
        <mxCell id="0" />
        <mxCell id="1" parent="0" />
        <mxCell id="Uh0Sx9Gyead4eDmnWzvX-3" value="" style="edgeStyle=orthogonalEdgeStyle;rounded=0;orthogonalLoop=1;jettySize=auto;html=1;" edge="1" parent="1" source="Uh0Sx9Gyead4eDmnWzvX-1" target="Uh0Sx9Gyead4eDmnWzvX-2">
          <mxGeometry relative="1" as="geometry" />
        </mxCell>
        <mxCell id="Uh0Sx9Gyead4eDmnWzvX-1" value="学生端" style="rounded=0;whiteSpace=wrap;html=1;" vertex="1" parent="1">
          <mxGeometry x="110" y="70" width="90" height="40" as="geometry" />
        </mxCell>
        <mxCell id="Uh0Sx9Gyead4eDmnWzvX-16" style="edgeStyle=orthogonalEdgeStyle;rounded=0;orthogonalLoop=1;jettySize=auto;html=1;entryX=0.637;entryY=-0.028;entryDx=0;entryDy=0;entryPerimeter=0;" edge="1" parent="1" source="Uh0Sx9Gyead4eDmnWzvX-2" target="Uh0Sx9Gyead4eDmnWzvX-15">
          <mxGeometry relative="1" as="geometry" />
        </mxCell>
        <mxCell id="Uh0Sx9Gyead4eDmnWzvX-2" value="1、auth&lt;br&gt;2、roomInfo&lt;br&gt;3、teacherInfo&lt;br&gt;4、Interactive&amp;nbsp;" style="rounded=0;whiteSpace=wrap;html=1;align=left;" vertex="1" parent="1">
          <mxGeometry x="315" y="60" width="90" height="140" as="geometry" />
        </mxCell>
        <mxCell id="Uh0Sx9Gyead4eDmnWzvX-4" value="老师端" style="rounded=0;whiteSpace=wrap;html=1;" vertex="1" parent="1">
          <mxGeometry x="110" y="420" width="85" height="50" as="geometry" />
        </mxCell>
        <mxCell id="Uh0Sx9Gyead4eDmnWzvX-5" value="login" style="text;html=1;strokeColor=none;fillColor=none;align=center;verticalAlign=middle;whiteSpace=wrap;rounded=0;" vertex="1" parent="1">
          <mxGeometry x="215" y="70" width="70" height="20" as="geometry" />
        </mxCell>
        <mxCell id="Uh0Sx9Gyead4eDmnWzvX-8" value="stores" style="text;html=1;strokeColor=none;fillColor=none;align=center;verticalAlign=middle;whiteSpace=wrap;rounded=0;" vertex="1" parent="1">
          <mxGeometry x="340" y="70" width="40" height="20" as="geometry" />
        </mxCell>
        <mxCell id="Uh0Sx9Gyead4eDmnWzvX-10" style="edgeStyle=orthogonalEdgeStyle;rounded=0;orthogonalLoop=1;jettySize=auto;html=1;entryX=1.007;entryY=0.083;entryDx=0;entryDy=0;entryPerimeter=0;" edge="1" parent="1" source="Uh0Sx9Gyead4eDmnWzvX-9" target="Uh0Sx9Gyead4eDmnWzvX-2">
          <mxGeometry relative="1" as="geometry" />
        </mxCell>
        <mxCell id="Uh0Sx9Gyead4eDmnWzvX-9" value="relash" style="ellipse;whiteSpace=wrap;html=1;" vertex="1" parent="1">
          <mxGeometry x="480" y="20" width="80" height="40" as="geometry" />
        </mxCell>
        <mxCell id="Uh0Sx9Gyead4eDmnWzvX-19" style="edgeStyle=orthogonalEdgeStyle;rounded=0;orthogonalLoop=1;jettySize=auto;html=1;entryX=1;entryY=0.25;entryDx=0;entryDy=0;" edge="1" parent="1" source="Uh0Sx9Gyead4eDmnWzvX-11" target="Uh0Sx9Gyead4eDmnWzvX-2">
          <mxGeometry relative="1" as="geometry">
            <Array as="points">
              <mxPoint x="443" y="135" />
              <mxPoint x="443" y="120" />
              <mxPoint x="405" y="120" />
            </Array>
          </mxGeometry>
        </mxCell>
        <mxCell id="Uh0Sx9Gyead4eDmnWzvX-11" value="eye protect" style="ellipse;whiteSpace=wrap;html=1;" vertex="1" parent="1">
          <mxGeometry x="480" y="120" width="80" height="30" as="geometry" />
        </mxCell>
        <mxCell id="Uh0Sx9Gyead4eDmnWzvX-14" style="edgeStyle=orthogonalEdgeStyle;rounded=0;orthogonalLoop=1;jettySize=auto;html=1;" edge="1" parent="1" source="Uh0Sx9Gyead4eDmnWzvX-13" target="Uh0Sx9Gyead4eDmnWzvX-2">
          <mxGeometry relative="1" as="geometry">
            <Array as="points">
              <mxPoint x="430" y="90" />
              <mxPoint x="430" y="90" />
            </Array>
          </mxGeometry>
        </mxCell>
        <mxCell id="Uh0Sx9Gyead4eDmnWzvX-13" value="network speed" style="ellipse;whiteSpace=wrap;html=1;" vertex="1" parent="1">
          <mxGeometry x="480" y="70" width="80" height="40" as="geometry" />
        </mxCell>
        <mxCell id="Uh0Sx9Gyead4eDmnWzvX-15" value="1、" style="rounded=0;whiteSpace=wrap;html=1;" vertex="1" parent="1">
          <mxGeometry x="300" y="350" width="160" height="60" as="geometry" />
        </mxCell>
        <mxCell id="Uh0Sx9Gyead4eDmnWzvX-17" value="join classroom" style="text;html=1;strokeColor=none;fillColor=none;align=center;verticalAlign=middle;whiteSpace=wrap;rounded=0;" vertex="1" parent="1">
          <mxGeometry x="365" y="230" width="105" height="20" as="geometry" />
        </mxCell>
        <mxCell id="Uh0Sx9Gyead4eDmnWzvX-20" style="edgeStyle=orthogonalEdgeStyle;rounded=0;orthogonalLoop=1;jettySize=auto;html=1;entryX=1.004;entryY=0.602;entryDx=0;entryDy=0;entryPerimeter=0;" edge="1" parent="1" source="Uh0Sx9Gyead4eDmnWzvX-18" target="Uh0Sx9Gyead4eDmnWzvX-2">
          <mxGeometry relative="1" as="geometry" />
        </mxCell>
        <mxCell id="Uh0Sx9Gyead4eDmnWzvX-18" value="set" style="ellipse;whiteSpace=wrap;html=1;" vertex="1" parent="1">
          <mxGeometry x="480" y="180" width="80" height="40" as="geometry" />
        </mxCell>
        <mxCell id="Uh0Sx9Gyead4eDmnWzvX-21" value="" style="whiteSpace=wrap;html=1;aspect=fixed;" vertex="1" parent="1">
          <mxGeometry x="135" y="200" width="80" height="80" as="geometry" />
        </mxCell>
      </root>
    </mxGraphModel>
  </diagram>
</mxfile>
